<svg xmlns="http://www.w3.org/2000/svg" viewBox="0 0 577.63 9.52"><g id="Capa_2" data-name="Capa 2"><g id="Layer_1" data-name="Layer 1"><polygon points="568.82 0 560.82 8 552.82 0 544.82 8 536.82 0 528.82 8 520.82 0 512.82 8 504.81 0 496.81 8 488.81 0 480.81 8 472.81 0 464.81 8 456.81 0 448.81 8 440.81 0 432.81 8 424.81 0 416.81 8 408.81 0 400.81 8 392.81 0 384.81 8 376.81 0 368.81 8 360.81 0 352.81 8 344.81 0 336.81 8 328.81 0 320.81 8 312.81 0 304.81 8 296.81 0 288.81 8 280.81 0 272.81 8 264.81 0 256.81 8 248.81 0 240.81 8 232.81 0 224.81 8 216.81 0 208.81 8 200.81 0 192.81 8 184.81 0 176.81 8 168.81 0 160.81 8 152.81 0 144.81 8 136.81 0 128.81 8 120.81 0 112.81 8 104.81 0 96.81 8 88.81 0 80.81 8 72.81 0 64.81 8 56.81 0 48.81 8 40.81 0 32.81 8 24.82 0 16.82 8 8.81 0 0 8.81 0.71 9.52 8.81 1.41 16.11 8.71 16.82 9.41 17.52 8.71 24.82 1.41 32.11 8.71 32.81 9.41 33.52 8.71 40.81 1.41 48.11 8.71 48.81 9.41 49.52 8.71 56.81 1.41 64.11 8.71 64.81 9.41 65.52 8.71 72.81 1.41 80.11 8.71 80.81 9.41 81.52 8.71 88.81 1.41 96.11 8.71 96.81 9.41 97.52 8.71 104.81 1.41 112.11 8.71 112.81 9.41 113.52 8.71 120.81 1.41 128.11 8.71 128.81 9.41 129.52 8.71 136.81 1.41 144.11 8.71 144.81 9.41 145.52 8.71 152.81 1.41 160.11 8.71 160.81 9.41 161.52 8.71 168.81 1.41 176.11 8.71 176.81 9.41 177.52 8.71 184.81 1.41 192.11 8.71 192.81 9.41 193.52 8.71 200.81 1.41 208.11 8.71 208.81 9.41 209.52 8.71 216.81 1.41 224.11 8.71 224.81 9.41 225.52 8.71 232.81 1.41 240.11 8.71 240.81 9.41 241.52 8.71 248.81 1.41 256.11 8.71 256.81 9.41 257.52 8.71 264.81 1.41 272.11 8.71 272.81 9.41 273.52 8.71 280.81 1.41 288.11 8.71 288.81 9.41 289.52 8.71 296.81 1.41 304.11 8.71 304.81 9.41 305.52 8.71 312.81 1.41 320.11 8.71 320.81 9.41 321.52 8.71 328.81 1.41 336.11 8.71 336.81 9.41 337.52 8.71 344.81 1.41 352.11 8.71 352.81 9.41 353.52 8.71 360.81 1.41 368.11 8.71 368.81 9.41 369.52 8.71 376.81 1.41 384.11 8.71 384.81 9.41 385.52 8.71 392.81 1.41 400.11 8.71 400.81 9.41 401.52 8.71 408.81 1.41 416.11 8.71 416.81 9.41 417.52 8.71 424.81 1.41 432.11 8.71 432.81 9.41 433.52 8.71 440.81 1.41 448.11 8.71 448.81 9.41 449.52 8.71 456.81 1.41 464.11 8.71 464.81 9.41 465.52 8.71 472.81 1.41 480.11 8.71 480.81 9.41 481.52 8.71 488.81 1.41 496.11 8.71 496.81 9.41 497.52 8.71 504.81 1.41 512.11 8.71 512.82 9.41 513.52 8.71 520.82 1.41 528.11 8.71 528.82 9.41 529.52 8.71 536.82 1.41 544.11 8.71 544.82 9.41 545.52 8.71 552.82 1.41 560.11 8.71 560.82 9.41 561.52 8.71 568.82 1.41 576.92 9.52 577.63 8.81 568.82 0"/></g></g></svg>