<svg xmlns="http://www.w3.org/2000/svg" viewBox="0 0 94 57.91"><defs><style>.cls-1{fill:#010103;}.cls-1,.cls-2,.cls-3,.cls-4,.cls-5{fill-rule:evenodd;}.cls-2{fill:#35b34a;}.cls-3{fill:#f6eb00;}.cls-4{fill:#fff;}.cls-5{fill:#ec1c24;}</style></defs><g id="Capa_2" data-name="Capa 2"><g id="Layer_1" data-name="Layer 1"><path class="cls-1" d="M46.74,0A55.9,55.9,0,0,1,62.26,2.14a47.43,47.43,0,0,1,9,3.58,38.82,38.82,0,0,1,7.09,4.71,30.91,30.91,0,0,1,5,5.25,24.48,24.48,0,0,1,3,5.35,20.79,20.79,0,0,1,0,15.84,24.79,24.79,0,0,1-3,5.36,30.85,30.85,0,0,1-5,5.24,38.36,38.36,0,0,1-7.09,4.72,47.39,47.39,0,0,1-9,3.57,57,57,0,0,1-20.83,1.9,52.66,52.66,0,0,1-14.92-3.5,44,44,0,0,1-8.11-4.22,34.66,34.66,0,0,1-6-5.06,27.27,27.27,0,0,1-3.95-5.33,21.82,21.82,0,0,1-2.69-8A21,21,0,0,1,7.13,21a24.72,24.72,0,0,1,3-5.35,30.91,30.91,0,0,1,5-5.25,38.82,38.82,0,0,1,7.09-4.71,47.43,47.43,0,0,1,9-3.58A56.67,56.67,0,0,1,46.74,0"/><path class="cls-2" d="M46.74.39A55.14,55.14,0,0,1,62.16,2.52a47.58,47.58,0,0,1,8.93,3.54,39,39,0,0,1,7,4.67A30.91,30.91,0,0,1,83,15.92a24,24,0,0,1,3,5.27,20.38,20.38,0,0,1,0,15.53A24,24,0,0,1,83,42a30.47,30.47,0,0,1-4.9,5.18,38.5,38.5,0,0,1-7,4.67,47,47,0,0,1-8.93,3.55,56.73,56.73,0,0,1-20.7,1.89A53.08,53.08,0,0,1,26.64,53.8a43.59,43.59,0,0,1-8-4.19,34.67,34.67,0,0,1-6-5,26.87,26.87,0,0,1-3.9-5.26A21.38,21.38,0,0,1,6.1,31.53,20.61,20.61,0,0,1,7.47,21.19a24,24,0,0,1,3-5.27,30.91,30.91,0,0,1,4.9-5.19,39,39,0,0,1,7-4.67,47.58,47.58,0,0,1,8.93-3.54A56.33,56.33,0,0,1,46.74.39"/><polygon class="cls-3" points="69.64 38.02 71.61 50.92 67.11 38.72 64.91 51.58 64.49 38.53 58.37 49.96 62.07 37.47 52.7 46.23 60.12 35.66 48.5 40.8 58.85 33.29 46.24 34.26 58.38 30.63 46.16 27.31 58.78 27.95 48.26 20.71 60 25.55 52.33 15.17 61.91 23.69 57.91 11.3 64.3 22.57 64.41 9.51 66.91 22.31 71.12 10 69.46 22.94 77.31 12.71 71.67 24.4 82.32 17.35 73.31 26.52 85.59 23.42 74.19 29.07 86.78 30.26 74.23 31.78 85.76 37.13 73.41 34.35 82.63 43.28 71.82 36.51 77.74 48.05 69.64 38.02"/><path class="cls-1" d="M46.55,10.19H44.63l-1.72-1L42.76,9c-.52,0-1,0-1.56,0v1.18h.38c.11,0,.22,0,.33,0H42l.24-.1H44l1.72,1v6.58l.22-.25h.83a10.33,10.33,0,0,1-.53-2,11.51,11.51,0,0,1,.07-4c.08-.38.17-.77.29-1.15M41.2,18.88h0a14.7,14.7,0,0,0,1.88-.08,4.24,4.24,0,0,0,1-.21,3.28,3.28,0,0,0,1.42-.88l.13-.14H43.29l-1.72-1,0-.09H41.2ZM30.56,5.63h0L30,6.07c-.18.15-.36.3-.53.46v.1l.09.84q.6,4.83,1.21,9.66V8c0-.13,0-.26,0-.39a12.72,12.72,0,0,0,0-1.38A1.72,1.72,0,0,0,30.56,5.63Zm-10,15.89h0a1.15,1.15,0,0,0,.25-.46.29.29,0,0,0,0-.09l0-.17ZM66,3l.1,0,1.72,1v6.3h-2l-1.71-1L64,9.2a7.82,7.82,0,0,0-3.42-.41,4.93,4.93,0,0,0-1.91.58,3.67,3.67,0,0,0-1.42,1.45,4.62,4.62,0,0,0-.45,1.26A9.42,9.42,0,0,0,57.2,17a5.15,5.15,0,0,0,1.17,1.85,5.59,5.59,0,0,0,1.47.19V15.94a6.85,6.85,0,0,0,0-.91,1,1,0,0,0-.29-.56,6.86,6.86,0,0,0-.93-.67v-2h9.57l1.72,1v2.93l3.21-8.14c.2-.47.38-.94.54-1.43,0-.12.07-.25.1-.38a.25.25,0,0,0,0-.12,1.32,1.32,0,0,0-.48-.43l-.76-.44V2.62H82.76l1.72,1Q87.72,11.35,91,19.1c.09.18.17.37.24.55a11.41,11.41,0,0,0,.87,1.75,3.67,3.67,0,0,0,.44.52c.47.46,1,.89,1.48,1.3v2H81.39l-1.72-1v-2.1c.36-.19.71-.4,1-.61a1.28,1.28,0,0,0,.22-.17.25.25,0,0,0,.1-.21,2.17,2.17,0,0,0,0-.26l-.57-1.45h-3.4c-.33.79-.63,1.58-.9,2.39a1.59,1.59,0,0,0-.06.43.05.05,0,0,0,0,0,4.09,4.09,0,0,0,.61.49l.55.39v2h-9.4l-.43-.24a31.65,31.65,0,0,1-4.85.59A20.31,20.31,0,0,1,56.68,25,14.52,14.52,0,0,1,53.2,23.6l-1.72-1a11.66,11.66,0,0,1-2.22-1.59L48,25.18H21.49l-1.72-1v-.34l-.62,1.83L18,25.47a9.66,9.66,0,0,1-2.26-.8q-.93-.47-1.83-1c-.46-.25-.91-.51-1.36-.77a5.61,5.61,0,0,1-2-2.15A18.5,18.5,0,0,1,9.7,19l-.31,2.71a.75.75,0,0,0,.18.56l1.28.72v2.18H1.72L0,24.22v-2l.54-.38a2.28,2.28,0,0,0,.91-1.4c.11-.5.19-1,.25-1.51L3.32,6.49a1.37,1.37,0,0,0-.3-1,6,6,0,0,0-1-.84v-2H12.28l1.71,1v1.1l2.29,5.17,2.1-6.08V2.62H28.91l.45.26V2.62H42.24a5.07,5.07,0,0,0,.87,0l.27-.1H45l1.72,1V9.61A10.34,10.34,0,0,1,48.65,6.5a12,12,0,0,1,2.77-2.25,14.36,14.36,0,0,1,3.69-1.52A17.91,17.91,0,0,1,59,2.17,23.77,23.77,0,0,1,66,3Z"/><path class="cls-1" d="M50.07,30.32h0v4.33h-2l-1.72-.92L46,33.47A7.54,7.54,0,0,0,43,33.11a6.05,6.05,0,0,0-1.34.3,3.81,3.81,0,0,0-1.78,1.34,4.44,4.44,0,0,0-.6,1.14,6.16,6.16,0,0,0-.33,1.33,11.83,11.83,0,0,0,.31,4.47,7.62,7.62,0,0,0,.55,1.41,4.86,4.86,0,0,0,.84,1.14,5.72,5.72,0,0,0,1.43.11V40.9c0-.31,0-.62,0-.93a2.13,2.13,0,0,0,0-.25,1.08,1.08,0,0,0-.27-.46,3,3,0,0,0-.33-.28l-.59-.4V36.66l9.62-.16.19.1V33.21c0-.53,0-1.05-.07-1.58a2.85,2.85,0,0,0-.45-1.31m-30.56,9.1h0V32.15c0-.43,0-.85,0-1.27a2.5,2.5,0,0,0-.26-1V36L17.49,35l-1.86-1.17a5.62,5.62,0,0,0-1.12-.36,6.38,6.38,0,0,0-.86-.13,3.21,3.21,0,0,0-1.11.11,2,2,0,0,0-.53.26,1.1,1.1,0,0,0-.29.36,1.2,1.2,0,0,0-.06.65,1,1,0,0,0,.21.41l1.22.48,1.08.46,1,.49.19.1,1.64.87A10.82,10.82,0,0,1,19.51,39.42Zm58.74,1.46h0L76.52,40a10.84,10.84,0,0,1-2-1.38,7.65,7.65,0,0,1-.89-.91v3.76L75.67,43l.52.36A12.94,12.94,0,0,0,78.1,44a9.47,9.47,0,0,0,1.68.26,6.74,6.74,0,0,0,1.19,0,3,3,0,0,0,.8-.21,1.41,1.41,0,0,0,.32-.17l.1-.1a.45.45,0,0,0,.11-.32.77.77,0,0,0-.21-.57,3.47,3.47,0,0,0-.34-.32l-.45-.2-1.58-.7Q79,41.27,78.25,40.88Zm-3.18-13v.35A10.05,10.05,0,0,1,79,26.7a18,18,0,0,1,8.83.75l.85.3,1.73.92v6.65l-1.73-.92-1.52-.9a7.38,7.38,0,0,0-2.45-.63,3.68,3.68,0,0,0-1.28.14.88.88,0,0,0-.57.4.42.42,0,0,0,.1.47c1.17.45,2.31.95,3.43,1.5l1.48.79a10.84,10.84,0,0,1,3.77,3.06,6.27,6.27,0,0,1,1.2,3.16,7.39,7.39,0,0,1-.31,2.88,7.13,7.13,0,0,1-3.26,4,10,10,0,0,1-3.71,1.3A21,21,0,0,1,76,49.64l-1.23-.43-1.21-.65v2.29l-1.45,0a7.58,7.58,0,0,1-1.77-.33,24.25,24.25,0,0,1-4.3-1.88,22.19,22.19,0,0,1-2-1.15,8.59,8.59,0,0,1-.94-.75,24.94,24.94,0,0,1-2-2.23c-.89-1.1-1.79-2.19-2.7-3.28v3.33c0,.56,0,1.12.08,1.68a2.64,2.64,0,0,0,.95,1.71l.44.37v1.83l-9.06.14-.61-.33a35.11,35.11,0,0,1-5,.88,21,21,0,0,1-5.54-.11,13.82,13.82,0,0,1-4.57-1.55l-1.42-.76A10.16,10.16,0,0,1,30,45.17v2a3.9,3.9,0,0,0,.18,1.27,1.12,1.12,0,0,0,.33.45l.89.48v1.9L19.84,52.68l-1.72-.91a12,12,0,0,1-4,2.15A21.18,21.18,0,0,1,8.62,55a16.57,16.57,0,0,1-4.1-.3l-.85-.17-1.73-.92L0,44.23l1.73.92,2.89,2.17a8.21,8.21,0,0,0,3.07.5,6.33,6.33,0,0,0,1.93-.35,2.91,2.91,0,0,0,1.15-.68,1.3,1.3,0,0,0,.36-1.24,1.07,1.07,0,0,0-.34-.55l-1.74-.69a19.38,19.38,0,0,1-2.12-1L5.4,42.53a9.29,9.29,0,0,1-1.65-1.1,7.23,7.23,0,0,1-2.1-2.81A9.09,9.09,0,0,1,1,34.91,9,9,0,0,1,2.47,30.2a7.39,7.39,0,0,1,1.39-1.57A9,9,0,0,1,7.5,26.81a14.55,14.55,0,0,1,3.55-.35,16.89,16.89,0,0,1,5.63,1.12l.81.31.62.33V27l11.58,0,1.73.92v2l-.75.46a1.44,1.44,0,0,0-.46.66,2.27,2.27,0,0,0-.16.73l0,.49a12,12,0,0,1,5-4.3,15.72,15.72,0,0,1,5.53-1.41,22.6,22.6,0,0,1,6.86.6l1,.25.32.17v-.58h9.56l1.72.92v.9l5.84,6.93V32.56A14.45,14.45,0,0,0,65.71,31a2.59,2.59,0,0,0-.87-1.71l-.52-.45V26.93h9Z"/><path class="cls-4" d="M31.6,22.32l.11-.05a2.42,2.42,0,0,0,.42-.29,1.62,1.62,0,0,0,.38-.49,1.88,1.88,0,0,0,.12-.3,1.1,1.1,0,0,0,.06-.26,2.51,2.51,0,0,0,0-.27c0-.11,0-.22,0-.33q0-.67,0-1.35V8.61c0-.43,0-.86,0-1.28a5.29,5.29,0,0,0,0-.56,1.28,1.28,0,0,0-.05-.27,2.3,2.3,0,0,0-.12-.34,1.41,1.41,0,0,0-.46-.6,1.54,1.54,0,0,0-.37-.23l-.35-.18V4.05H44.28l.31,0A.86.86,0,0,0,44.82,4l.12,0h.92V9.2H44.7l-.2-.3a1.68,1.68,0,0,0-.72-.57,3.53,3.53,0,0,0-.46-.15L43,8.11l-.33,0-.41,0c-.53,0-1.07,0-1.6,0h-.38v3.22h2.4l.58,0,.32-.05.08,0,.12,0h1v5.15H43.44l-.17-.41a.64.64,0,0,0-.18-.25,1.14,1.14,0,0,0-.23-.15,1.61,1.61,0,0,0-.29-.09.78.78,0,0,0-.21,0,4.4,4.4,0,0,0-.51-.05c-.39,0-.77,0-1.16,0h-.41v4.1a8.52,8.52,0,0,0,.88.16l.3,0a17.25,17.25,0,0,0,2.49,0c.25,0,.51,0,.76-.07a5.54,5.54,0,0,0,.69-.12,5.73,5.73,0,0,0,.7-.23,3.7,3.7,0,0,0,1.33-.87l.2-.2H49l-1.74,5.45H21.72v-1l.22-.19a3.5,3.5,0,0,0,.39-.38,2.1,2.1,0,0,0,.32-.46,1.05,1.05,0,0,0,.12-.31.62.62,0,0,0,0-.27l-.86-7.06L18.31,24l-.6-.12a7.19,7.19,0,0,1-.8-.2c-.26-.08-.5-.16-.75-.26l-.65-.29c-.34-.16-.68-.33-1-.51l-.44-.25a5.51,5.51,0,0,1-.73-.54,6.25,6.25,0,0,1-.44-.45,3.51,3.51,0,0,1-.4-.53c-.13-.2-.25-.41-.36-.62-.24-.47-.47-.95-.67-1.44L9.15,13.51l-.86,7.25a1.2,1.2,0,0,0,.3.93,1.77,1.77,0,0,0,.31.3,2.94,2.94,0,0,0,.46.25l.4.18v1.12H1.84v-1l.28-.19a3.1,3.1,0,0,0,.51-.44,3,3,0,0,0,.27-.35,4,4,0,0,0,.2-.35,2.32,2.32,0,0,0,.13-.37,5.47,5.47,0,0,0,.13-.55q.14-.69.21-1.38L5.17,7.23a2,2,0,0,0,0-.73,2.19,2.19,0,0,0-.3-.59,2.62,2.62,0,0,0-.22-.25,2.32,2.32,0,0,0-.44-.39l-.26-.2v-1h9v.59l4.15,9,3.25-8.93V4.05h9.32v1l-.27.19-.54.42a2,2,0,0,0-.21.2.13.13,0,0,0-.06.07.6.6,0,0,0-.08.16,1.24,1.24,0,0,0,0,.27c0,.06,0,.12,0,.18l1.56,12c0,.19,0,.38.08.57s.09.52.14.78.09.42.14.63a4.59,4.59,0,0,0,.17.48,2.75,2.75,0,0,0,.2.38c.08.12.16.24.25.35a3.19,3.19,0,0,0,.59.57Z"/><path class="cls-4" d="M79.25,11.11h0L78,14.18h2.53ZM69.1,21.92l.28-.27a4.59,4.59,0,0,0,.49-.6c.1-.16.2-.33.29-.5a11.87,11.87,0,0,0,.54-1.14l4.59-11,.42-1c.06-.16.11-.31.16-.47a.79.79,0,0,0,.06-.22,1.77,1.77,0,0,0,0-.2A.73.73,0,0,0,75.85,6a.65.65,0,0,0-.13-.16,1.51,1.51,0,0,0-.23-.21,3,3,0,0,0-.44-.28l-.34-.19V4.05H84l6.37,14.51.08.12a15.33,15.33,0,0,0,.69,1.49c.06.12.13.24.21.37a2.2,2.2,0,0,0,.18.28,3.23,3.23,0,0,0,.38.45l.15.15a13,13,0,0,0,1.06.91l.25.19v1H82V22.45l.35-.18c.16-.09.32-.18.47-.28a1.08,1.08,0,0,0,.24-.18.87.87,0,0,0,.2-.23.62.62,0,0,0,.09-.26,1.36,1.36,0,0,0,0-.2,2.64,2.64,0,0,0,0-.28l0-.11a3,3,0,0,0-.17-.41L82.17,18H76.53l-.63,1.48c-.12.28-.23.57-.34.86,0,.13-.09.26-.13.4a2.14,2.14,0,0,0-.08.44.76.76,0,0,0,0,.26,1.14,1.14,0,0,0,.1.19l.08.1.2.17a4.74,4.74,0,0,0,.51.37l.29.19v1.05H68.36v-.47c-.82.19-1.64.34-2.47.47a31.41,31.41,0,0,1-3.5.34c-.35,0-.71,0-1.06,0-.63,0-1.26,0-1.88-.08a17.71,17.71,0,0,1-1.8-.24A15.22,15.22,0,0,1,56,23.19a15,15,0,0,1-1.47-.5q-.66-.27-1.29-.6a11.59,11.59,0,0,1-1.12-.69,9.54,9.54,0,0,1-1.78-1.57,8.42,8.42,0,0,1-1.65-2.77A9,9,0,0,1,48.2,15a9.16,9.16,0,0,1-.05-1.17,8.48,8.48,0,0,1,.09-1.23,8.92,8.92,0,0,1,.25-1.25,8.61,8.61,0,0,1,1-2.36,9.51,9.51,0,0,1,1.78-2.07A11.7,11.7,0,0,1,52.51,6a12.73,12.73,0,0,1,1.39-.79,14,14,0,0,1,1.59-.66A15.46,15.46,0,0,1,57.26,4a18,18,0,0,1,1.93-.31,19.34,19.34,0,0,1,2-.11c.65,0,1.31,0,2,.08A22.19,22.19,0,0,1,65.74,4l.78.17L67,4.3v5h-1.1l-.2-.15A4.12,4.12,0,0,0,65,8.66l-.32-.14A9,9,0,0,0,63.05,8a9.74,9.74,0,0,0-1.71-.2,8.93,8.93,0,0,0-1.47.11l-.63.14a5.45,5.45,0,0,0-1,.4,4.17,4.17,0,0,0-1.52,1.33,4.4,4.4,0,0,0-.52,1,4.84,4.84,0,0,0-.19.65,6.17,6.17,0,0,0-.14,1c0,.21,0,.42,0,.64a11.21,11.21,0,0,0,.14,1.73,8.72,8.72,0,0,0,.36,1.4,6.59,6.59,0,0,0,.45,1,5,5,0,0,0,1.07,1.34,4.4,4.4,0,0,0,1.55.88,6,6,0,0,0,1.13.25c.28,0,.56,0,.84.05H62V16.2c0-.23,0-.47,0-.7a2.91,2.91,0,0,0,0-.31,1.32,1.32,0,0,0-.09-.3,1.16,1.16,0,0,0-.23-.36,1.2,1.2,0,0,0-.23-.22A2.42,2.42,0,0,0,61,14l-.3-.19v-1H69.1Z"/><path class="cls-4" d="M51.5,48.6l.18-.16a3.86,3.86,0,0,0,.64-.7,4.25,4.25,0,0,0,.27-.46,3.12,3.12,0,0,0,.25-.84,5,5,0,0,0,.06-.54,8.06,8.06,0,0,0,0-.85c0-.16,0-.33,0-.49V34.13c0-.39,0-.77,0-1.16,0-.2,0-.4-.05-.6a3.6,3.6,0,0,0-.15-.63,3.4,3.4,0,0,0-.29-.65c-.07-.12-.15-.24-.23-.35l-.36-.45c-.21-.24-.42-.47-.64-.69L51,29.42v-1h8.29V29l8.83,10.49v-6c0-.33,0-.67,0-1s0-.41-.05-.62a3,3,0,0,0-.06-.4,3.14,3.14,0,0,0-.34-.91,3.43,3.43,0,0,0-.46-.62c-.1-.1-.2-.2-.31-.29l-.22-.19v-1h7.75v1l-.22.19a3.13,3.13,0,0,0-.62.69,2.51,2.51,0,0,0-.26.45,3.34,3.34,0,0,0-.26.83c0,.18,0,.36,0,.54s0,.26,0,.39c0,.32,0,.63,0,1V50.24l-.7,0a5.16,5.16,0,0,1-.78-.08,8.42,8.42,0,0,1-1-.24l-.59-.2c-.69-.25-1.37-.52-2-.83a12,12,0,0,1-1.12-.59,8.7,8.7,0,0,1-.9-.59,5.37,5.37,0,0,1-.58-.49L65.1,47c-.49-.49-.95-1-1.39-1.53L63.3,45,63,44.64l-5.25-6.33v6.21c0,.33,0,.67,0,1s0,.41.05.62a3.23,3.23,0,0,0,.4,1.3,3.05,3.05,0,0,0,.46.61,2.91,2.91,0,0,0,.31.3l.22.19v1l-7.79.12V49c-1,.28-1.93.52-2.91.73a32,32,0,0,1-3.4.52c-.68.07-1.36.11-2,.12a18.86,18.86,0,0,1-2.71-.14l-.83-.13a13.41,13.41,0,0,1-2.26-.59c-.23-.09-.46-.17-.68-.27a10.85,10.85,0,0,1-2.36-1.37,9.11,9.11,0,0,1-2.13-2.3,9.52,9.52,0,0,1-1-2.27,9.9,9.9,0,0,1-.33-1.3,12.7,12.7,0,0,1-.2-2,13.35,13.35,0,0,1,.27-2.82,11.24,11.24,0,0,1,.58-1.93,10.45,10.45,0,0,1,2.13-3.32,11.18,11.18,0,0,1,1.54-1.36,13,13,0,0,1,1.87-1.11,12.29,12.29,0,0,1,1.41-.58,14.8,14.8,0,0,1,3.16-.73l.88-.08c.61,0,1.23-.05,1.84,0a21,21,0,0,1,2.86.25c.62.09,1.24.22,1.85.37l.5.13v5.34H48.32l-.19-.16a4.76,4.76,0,0,0-1.05-.66,8.46,8.46,0,0,0-1.56-.54,8.12,8.12,0,0,0-2.09-.22,6.69,6.69,0,0,0-1.84.31,4.49,4.49,0,0,0-2.67,2.28c-.1.2-.19.41-.27.62a6.67,6.67,0,0,0-.35,1.45,11.28,11.28,0,0,0-.09,2,12,12,0,0,0,.26,2.06,10.23,10.23,0,0,0,.37,1.31,6.21,6.21,0,0,0,.31.7,5,5,0,0,0,.55.88,6.26,6.26,0,0,0,.41.49,4.45,4.45,0,0,0,.91.69,4.24,4.24,0,0,0,1.06.41,5.4,5.4,0,0,0,1,.15h.8a5.28,5.28,0,0,0,.55,0v-4a8.83,8.83,0,0,0,0-.89c0-.11,0-.21,0-.32a1.83,1.83,0,0,0-.35-.73l-.18-.18a3,3,0,0,0-.39-.31l-.28-.19v-1L51.5,38Z"/><path class="cls-4" d="M5.72,54.32c-.36,0-.71-.11-1.07-.18l-.44-.09L2.68,46.62l1.46,1.09a7.09,7.09,0,0,0,1.2.75c.21.1.43.2.65.28a9.39,9.39,0,0,0,2.58.58,8.37,8.37,0,0,0,2-.11c.2,0,.39-.08.59-.14l.51-.16a3.68,3.68,0,0,0,.57-.26l.33-.2a2.72,2.72,0,0,0,.62-.6,2,2,0,0,0,.11-.2,1.73,1.73,0,0,0,.22-.89,2.5,2.5,0,0,0,0-.47,1.8,1.8,0,0,0-.16-.38l-.12-.17a3.15,3.15,0,0,0-.64-.57l-.34-.2-.45-.21q-.62-.27-1.23-.51l-1.24-.48q-.64-.26-1.26-.54c-.29-.14-.57-.28-.84-.43l-.38-.23a7.49,7.49,0,0,1-.65-.45,7,7,0,0,1-.82-.72,4.48,4.48,0,0,1-.63-.75A6.7,6.7,0,0,1,3.84,39a7.45,7.45,0,0,1-.37-1.55c0-.33-.07-.66-.08-1a8.85,8.85,0,0,1,0-1,7.14,7.14,0,0,1,.14-1,7.27,7.27,0,0,1,.36-1.29,8.5,8.5,0,0,1,.54-1.19,7.21,7.21,0,0,1,.73-1.07A6.07,6.07,0,0,1,6.37,29.7,7.84,7.84,0,0,1,8,28.78l.71-.28c.25-.08.51-.16.78-.22a8.72,8.72,0,0,1,.89-.16,14.43,14.43,0,0,1,3-.13,12.75,12.75,0,0,1,1.5.17c.32.05.65.11,1,.18a14.65,14.65,0,0,1,2.34.7l.42.16v5.65l-1.07-.67a12.07,12.07,0,0,0-1.37-.74l-.64-.26a6.77,6.77,0,0,0-1.73-.38,4,4,0,0,0-1.3.1,2.36,2.36,0,0,0-.85.39,1.62,1.62,0,0,0-.32.32,1.58,1.58,0,0,0-.2.36,1.77,1.77,0,0,0-.07.88,1.4,1.4,0,0,0,.38.73,2.14,2.14,0,0,0,.32.28l.14.09a4.59,4.59,0,0,0,.49.26l.76.34.72.27c.4.15.8.32,1.19.49l.89.39c.27.12.53.25.78.38a8.1,8.1,0,0,1,.7.42,10.36,10.36,0,0,1,1.24.94,11.11,11.11,0,0,1,1,1.05,5.89,5.89,0,0,1,1.09,2A6.56,6.56,0,0,1,21,43.67a7.63,7.63,0,0,1,0,1.91,9.34,9.34,0,0,1-.25,1.28,8.14,8.14,0,0,1-1.07,2.32,9.27,9.27,0,0,1-1.85,2.06,11.68,11.68,0,0,1-1.27.91,10.81,10.81,0,0,1-1.72.9l-.88.32c-.7.23-1.42.43-2.14.59-.38.08-.75.16-1.13.22A16.06,16.06,0,0,1,9,54.39a16,16,0,0,1-2.19,0c-.37,0-.73-.06-1.09-.1"/><path class="cls-4" d="M29.38,32.77c0,.11,0,.22,0,.33s0,.42,0,.64V45.8c0,.12,0,.25,0,.37v.58c0,.29,0,.57,0,.85a2.45,2.45,0,0,1,0,.27,2.72,2.72,0,0,0,.16.74,2,2,0,0,0,.2.42,1.79,1.79,0,0,0,.46.45l.18.11.37.18v1L20.47,52V50.89l.25-.19a3,3,0,0,0,.58-.6,2.62,2.62,0,0,0,.27-.49,3.53,3.53,0,0,0,.22-.72c0-.14,0-.28.05-.42,0-.49.05-1,0-1.46,0-.21,0-.43,0-.65V33.52c0-.21,0-.41,0-.61l0-.89a2.64,2.64,0,0,0,0-.28,3.15,3.15,0,0,0-.16-.81,3.22,3.22,0,0,0-.23-.5,2.06,2.06,0,0,0-.29-.37,2.79,2.79,0,0,0-.38-.3l-.3-.19V28.5l10.32,0v1.08l-.32.19a2.05,2.05,0,0,0-.79.89,2.6,2.6,0,0,0-.21.65c0,.13,0,.27,0,.4,0,.36,0,.72,0,1.09"/><path class="cls-4" d="M76.74,49.25l-1-.35-.33-.13-1.63-6.49,1.55,1.16a11,11,0,0,0,1.9,1.14,13.53,13.53,0,0,0,2.64.92,9.78,9.78,0,0,0,1.71.24,7.41,7.41,0,0,0,1.41-.07,3.72,3.72,0,0,0,.88-.26,1.86,1.86,0,0,0,.5-.32,1.08,1.08,0,0,0,.24-.32,1.12,1.12,0,0,0,.1-.4,1.38,1.38,0,0,0,0-.29,1.25,1.25,0,0,0-.31-.68,3.71,3.71,0,0,0-.5-.47,4.45,4.45,0,0,0-.51-.33l-.45-.23c-.41-.2-.82-.39-1.24-.57l-1.23-.54c-.42-.19-.84-.38-1.26-.59s-.55-.28-.82-.43L78,40a9.75,9.75,0,0,1-1.45-1.08,6.06,6.06,0,0,1-1.27-1.59,5.47,5.47,0,0,1-.62-1.78,5.58,5.58,0,0,1-.09-.81,7.85,7.85,0,0,1,0-.84,6.17,6.17,0,0,1,.15-.84,5.75,5.75,0,0,1,.63-1.52,6.15,6.15,0,0,1,1.48-1.7,6.92,6.92,0,0,1,.77-.52,8.6,8.6,0,0,1,1.57-.72,10.15,10.15,0,0,1,1.9-.47,16.85,16.85,0,0,1,4.43-.08,18.24,18.24,0,0,1,1.94.32,15.14,15.14,0,0,1,1.86.53l.45.15v5.18l-1.06-.63A12.29,12.29,0,0,0,87,32.79a7.94,7.94,0,0,0-2.06-.49,5,5,0,0,0-1.33.05l-.18,0a2.75,2.75,0,0,0-.69.27,1.17,1.17,0,0,0-.35.31.76.76,0,0,0-.12.19,1,1,0,0,0,0,.77,1.21,1.21,0,0,0,.24.35,2.18,2.18,0,0,0,.4.34l.14.09.51.25c.25.12.51.23.77.33l.47.19c.48.19,1,.38,1.44.59l.89.4c.26.13.52.25.78.39a10.76,10.76,0,0,1,1.92,1.33,8.76,8.76,0,0,1,1,1,5.61,5.61,0,0,1,1.1,1.92,5.73,5.73,0,0,1,.25,1.07,6.73,6.73,0,0,1-.26,2.92,6.15,6.15,0,0,1-1.09,2,6.93,6.93,0,0,1-1.61,1.44,9.15,9.15,0,0,1-1.59.81,9.45,9.45,0,0,1-2.16.58c-.51.07-1,.12-1.53.14s-1.11,0-1.66,0A18.61,18.61,0,0,1,80,50a19.79,19.79,0,0,1-3.25-.7"/><path class="cls-5" d="M17.15,15.37,21,4.77V4.68H29v.09c-.8.61-1.29.88-1.16,1.88l1.56,12c.2,1.55.37,3.1,1.83,4.18v.08H22.4v-.08a2.45,2.45,0,0,0,1.07-2l-1.2-9.72h-.1L17.85,23.21a11.38,11.38,0,0,1-3.16-1.27c-1.56-.86-2-2-2.59-3.44L8.84,11.14h-.1L7.61,20.69a2.11,2.11,0,0,0,1.46,2.13v.08H2.52v-.08c1.47-1,1.53-2.38,1.73-3.88L5.85,7.31A2.66,2.66,0,0,0,4.58,4.77V4.68h7.65v.09Z"/><path class="cls-5" d="M80.09,49.33h0a18.91,18.91,0,0,0,2.15.16c.36,0,.73,0,1.08,0s.7,0,1-.06.67-.06,1-.1.5-.08.72-.13a9,9,0,0,0,1.89-.67,8,8,0,0,0,1.1-.65,6,6,0,0,0,.85-.72A5.65,5.65,0,0,0,91,45.42a6.25,6.25,0,0,0,.47-2.63,5.41,5.41,0,0,0-.45-1.93,5.84,5.84,0,0,0-.48-.85l-.32-.41c-.13-.15-.28-.32-.44-.48a9.53,9.53,0,0,0-1.06-.91l-.6-.42A12.62,12.62,0,0,0,86.76,37l-.87-.39L85,36.26l-1-.38-.81-.35-.55-.28c-.14-.08-.24-.15-.34-.22L82,34.81l-.2-.2a1.73,1.73,0,0,1-.34-.71,1.65,1.65,0,0,1,.09-1,1.84,1.84,0,0,1,.75-.8l.32-.16a3.26,3.26,0,0,1,.78-.23l.49-.07.51,0,.54,0,.62.08.64.14a9.71,9.71,0,0,1,1.34.46c.24.1.49.22.73.34s.49.26.73.4V29.51a16.43,16.43,0,0,0-3.64-.81,16.17,16.17,0,0,0-2.87-.07,14.18,14.18,0,0,0-1.78.22l-.7.16a10.48,10.48,0,0,0-1.27.45,5.94,5.94,0,0,0-.57.27c-.18.1-.36.2-.52.31a3.65,3.65,0,0,0-.43.31,5.63,5.63,0,0,0-1.33,1.51,5.12,5.12,0,0,0-.71,2.36,5.63,5.63,0,0,0,.12,1.49,5.1,5.1,0,0,0,.77,1.78,5.86,5.86,0,0,0,1.11,1.2l.52.41c.18.13.37.26.59.39s.48.28.74.42l.8.39.83.38,1.24.54c.45.21.93.42,1.26.59s.52.27.68.36a3.69,3.69,0,0,1,.39.27l.33.27.27.29.18.23a2,2,0,0,1,.28,1.3,1.5,1.5,0,0,1-.27.71,1.45,1.45,0,0,1-.38.41l-.26.18a2.11,2.11,0,0,1-.3.16,3.54,3.54,0,0,1-.39.14,2.83,2.83,0,0,1-.44.12c-.15,0-.31.06-.5.08l-.61.05h-.69c-.23,0-.48,0-.72-.06a10.42,10.42,0,0,1-1.5-.29l-.82-.24a14.05,14.05,0,0,1-1.58-.63,10.86,10.86,0,0,1-1.38-.77c-.22-.14-.44-.29-.65-.45l1.1,4.37a20.49,20.49,0,0,0,4.15,1M72.31,32.52h0c0-.3,0-.56,0-.75a3.29,3.29,0,0,1,.08-.46,3.59,3.59,0,0,1,.7-1.51,4,4,0,0,1,.61-.63v-.09H67.37v.09c.12.11.25.22.36.34a3.61,3.61,0,0,1,.55.75,3.71,3.71,0,0,1,.35.85,2.83,2.83,0,0,1,.1.52,15.07,15.07,0,0,1,.1,1.85v7.81L58.62,29.17v-.09H51.71v.09c.24.24.46.49.66.72s.37.45.5.63a3.6,3.6,0,0,1,.3.52,3.89,3.89,0,0,1,.21.51,4.94,4.94,0,0,1,.22,1.39c0,.34,0,.76,0,1.19V44.56c0,.34,0,.68,0,1s0,.55-.06.75a4.13,4.13,0,0,1-.08.47,3.73,3.73,0,0,1-.72,1.52,4.16,4.16,0,0,1-.62.64V49l6.42-.09v-.09l-.37-.34a4,4,0,0,1-.55-.74,3.91,3.91,0,0,1-.35-.85,4,4,0,0,1-.1-.52,15.07,15.07,0,0,1-.1-1.85v-8h.1l6.39,7.69c.37.45.73.91,1.08,1.31s.68.75.94,1a6.34,6.34,0,0,0,.72.63c.25.18.52.36.84.55s.65.36,1.06.55.89.39,1.33.57.85.32,1.2.43a8.52,8.52,0,0,0,.87.22,5.88,5.88,0,0,0,.67.07V33.49C72.29,33.15,72.29,32.81,72.31,32.52ZM43.83,38.79h0v.09a5.48,5.48,0,0,1,.59.49,1.28,1.28,0,0,1,.19.23,2.29,2.29,0,0,1,.37.75c0,.09,0,.19.06.32s0,.29,0,.49,0,.43,0,.66v4.53a5.13,5.13,0,0,1-.76.11,8.77,8.77,0,0,1-.9,0c-.29,0-.55,0-.8,0a7.34,7.34,0,0,1-.73-.13,5.35,5.35,0,0,1-.64-.2,5,5,0,0,1-1.15-.65,5.07,5.07,0,0,1-1-1,7,7,0,0,1-.43-.63,7.8,7.8,0,0,1-.35-.71A8.18,8.18,0,0,1,38,42.3c-.09-.3-.17-.62-.25-1s-.13-.7-.18-1.06a12.27,12.27,0,0,1-.08-2.18,8.06,8.06,0,0,1,.09-1,8.29,8.29,0,0,1,.15-.83,7.31,7.31,0,0,1,.53-1.43,5.43,5.43,0,0,1,.77-1.14,5.25,5.25,0,0,1,1.64-1.22,5.66,5.66,0,0,1,.66-.25,6,6,0,0,1,.76-.2,5.53,5.53,0,0,1,.83-.12,9.08,9.08,0,0,1,.91,0,8.94,8.94,0,0,1,2.71.49c.28.1.56.22.8.33A4.27,4.27,0,0,1,48,33a5.66,5.66,0,0,1,.56.4h.17V29.2c-.58-.14-1.17-.26-1.78-.35s-1.24-.16-1.85-.21-1.22-.05-1.81,0a15.48,15.48,0,0,0-1.72.12A14.3,14.3,0,0,0,40,29c-.5.12-1,.26-1.46.42a12.1,12.1,0,0,0-2.53,1.22,10,10,0,0,0-1.08.79,8.65,8.65,0,0,0-.94.87,10.32,10.32,0,0,0-2,3.12c-.15.39-.28.78-.4,1.19a12.83,12.83,0,0,0-.39,2.66,11.24,11.24,0,0,0,.18,2.61,11.63,11.63,0,0,0,.3,1.23,9.16,9.16,0,0,0,.44,1.11A8.26,8.26,0,0,0,34.23,47a7.77,7.77,0,0,0,1,.74,9.75,9.75,0,0,0,2.36,1.17,11.44,11.44,0,0,0,1.4.41,13.87,13.87,0,0,0,1.53.28c.54.06,1.12.11,1.71.13s1.19,0,1.86,0,1.39-.11,2.12-.21,1.45-.22,2.23-.38,1.6-.37,2.42-.59V38.66Zm-15.14-6h0c0-.3,0-.57,0-.8s0-.43.05-.58a2.62,2.62,0,0,1,.07-.38,3.08,3.08,0,0,1,.55-1.17,2.82,2.82,0,0,1,.72-.62v-.1l-8.94,0v.11a2.6,2.6,0,0,1,1,1.17,3,3,0,0,1,.23.68,2.14,2.14,0,0,1,.07.38c0,.13,0,.28.05.53s0,.57,0,.9,0,.67,0,1V46.36c0,.35,0,.69,0,1s0,.58,0,.82,0,.45-.05.61a2.77,2.77,0,0,1-.06.38,3.68,3.68,0,0,1-.56,1.28,3.33,3.33,0,0,1-.71.74v.11l8.94-1v-.1a2.32,2.32,0,0,1-1.05-1,3.08,3.08,0,0,1-.29-1,4.58,4.58,0,0,1,0-.5c0-.23,0-.55,0-.87s0-.64,0-1v-12C28.7,33.4,28.69,33.06,28.69,32.76ZM9,53.76a18.49,18.49,0,0,0,2.15-.3l1.08-.25c.36-.08.7-.18,1-.28l.95-.32c.28-.1.5-.19.72-.29a11,11,0,0,0,1.89-1.11,11.57,11.57,0,0,0,1.1-.91,8.3,8.3,0,0,0,.85-.94c.12-.17.25-.34.36-.51a7.49,7.49,0,0,0,1-2.15,7.86,7.86,0,0,0,.28-2.39,5.94,5.94,0,0,0-.44-2.1,5.56,5.56,0,0,0-.49-.9,5.06,5.06,0,0,0-.31-.43c-.13-.15-.28-.33-.44-.5a9.72,9.72,0,0,0-1.06-.94c-.19-.14-.4-.29-.6-.42a11.14,11.14,0,0,0-1.39-.75c-.27-.12-.57-.26-.87-.38l-.93-.39-1-.37c-.3-.12-.57-.24-.8-.35s-.41-.21-.55-.29a2.17,2.17,0,0,1-.34-.24A3.13,3.13,0,0,1,10.9,36a1.43,1.43,0,0,1-.2-.23,2.22,2.22,0,0,1-.35-.82,2.33,2.33,0,0,1,.1-1.17A2.12,2.12,0,0,1,11,33l.24-.21.32-.2a3.43,3.43,0,0,1,.78-.31c.16,0,.33-.07.5-.09a4.38,4.38,0,0,1,.51,0,4.88,4.88,0,0,1,.53,0,4.94,4.94,0,0,1,.63.08,4.89,4.89,0,0,1,.64.14,7.79,7.79,0,0,1,1.34.48c.24.11.49.23.73.36s.49.27.73.42v-4a15.55,15.55,0,0,0-3.64-.92,13.78,13.78,0,0,0-2.87-.07,12.24,12.24,0,0,0-1.78.26,6.43,6.43,0,0,0-.7.2,7.29,7.29,0,0,0-1.27.56,5.36,5.36,0,0,0-.57.34c-.18.12-.36.26-.52.39a5.57,5.57,0,0,0-.43.39,6.54,6.54,0,0,0-1.33,1.95,8,8,0,0,0-.72,3,9.53,9.53,0,0,0,.13,1.87A6.66,6.66,0,0,0,5,39.82a5.66,5.66,0,0,0,.31.48,5.8,5.8,0,0,0,.79.89,5.89,5.89,0,0,0,.53.44,5.58,5.58,0,0,0,.59.42c.22.13.47.28.74.41s.54.26.8.38l.83.34,1.24.48,1.26.52c.33.15.52.25.68.34s.28.18.39.27a2.78,2.78,0,0,1,.33.27l.27.29a3,3,0,0,1,.18.25,2.41,2.41,0,0,1,.28,1.46,2.45,2.45,0,0,1-.27.87,2.19,2.19,0,0,1-.38.53l-.26.26A2.79,2.79,0,0,1,13,49a4.2,4.2,0,0,1-.38.24,4.49,4.49,0,0,1-.44.21,4.1,4.1,0,0,1-.5.18c-.18.06-.39.12-.61.17a5,5,0,0,1-.69.13c-.23,0-.48.06-.72.07a8.43,8.43,0,0,1-1.5-.05,8.19,8.19,0,0,1-.82-.13,8.75,8.75,0,0,1-1.58-.45,8.42,8.42,0,0,1-1.38-.68c-.22-.14-.44-.28-.65-.44l1.1,5.31A15.49,15.49,0,0,0,9,53.76Z"/><path class="cls-5" d="M39.59,14.63v5.2a11.37,11.37,0,0,0,3.49.42c1.86,0,3.59-.25,4.85-1.53h.17L46.77,22.9H32v-.08c1.63-.86,1.4-2.41,1.4-3.85V8.62c0-1.44.23-3-1.4-3.85V4.68H43.68a4.67,4.67,0,0,0,1.4-.13h.09v4h-.09c-.9-1.3-2.8-1.16-4.43-1.16H39.59v4.48h3.09a4,4,0,0,0,1.23-.13h.17v3.87h-.17c-.46-1.11-2-1-3.22-1Z"/><path class="cls-5" d="M81.54,14.82h0L79.25,9.36h0L77,14.82Zm1.1,2.57H76.06l-.8,1.89a6.33,6.33,0,0,0-.6,2c0,.78.6,1.14,1.2,1.55v.08H69v-.08a6.56,6.56,0,0,0,2.3-3.18l4.59-11a9.78,9.78,0,0,0,.73-2.22,2,2,0,0,0-1.27-1.6V4.68h8.15l6.21,14.15.07.11a7.47,7.47,0,0,0,2.86,3.88v.08h-10v-.08c.77-.41,1.36-.8,1.36-1.69a2,2,0,0,0-.26-1.05Z"/><path class="cls-5" d="M68.45,13.27v9a31.53,31.53,0,0,1-7.08.86c-6.91,0-12.5-3.27-12.5-9.41,0-6,5.49-9.61,12.37-9.61a23.28,23.28,0,0,1,5.15.55V8.48h-.16A8.83,8.83,0,0,0,61.34,7C57,7,55.16,9.53,55.16,12.88s1.42,7.34,6.24,7.34a7.37,7.37,0,0,0,1.33-.08V16c0-1.24-.06-1.91-1.26-2.68v-.09Z"/></g></g></svg>