<svg xmlns="http://www.w3.org/2000/svg" viewBox="0 0 19.22 21.69"><defs><style>.cls-1{fill:#9b9b9b;}.cls-2{fill:#e3e4e4;}.cls-3{fill:#bbbcbd;}</style></defs><g id="Capa_2" data-name="Capa 2"><g id="Layer_1" data-name="Layer 1"><path class="cls-1" d="M15.85,2.86A5.15,5.15,0,0,0,13.63.78a6.57,6.57,0,0,0-2-.6A22.61,22.61,0,0,0,8.35,0H3.69A.81.81,0,0,0,2.9.67L0,18.86a.51.51,0,0,0,.5.59H5.08l1-6.1a.8.8,0,0,1,.79-.67h1.5a20,20,0,0,0,3.42-.21,5.53,5.53,0,0,0,1.88-.7A5.89,5.89,0,0,0,15.8,9.38,7.43,7.43,0,0,0,16.59,6,6.33,6.33,0,0,0,15.85,2.86Z"/><path class="cls-2" d="M18.57,7.07a4.45,4.45,0,0,0-2-1.82,5.48,5.48,0,0,0-1.7-.53A19.49,19.49,0,0,0,12,4.56H7.87a.71.71,0,0,0-.7.59l-2.55,16a.45.45,0,0,0,.44.52h4L10,16.31a.69.69,0,0,1,.69-.59H12a18.07,18.07,0,0,0,3-.18,4.82,4.82,0,0,0,1.66-.62,5.22,5.22,0,0,0,1.89-2.1,6.55,6.55,0,0,0,.69-3A5.55,5.55,0,0,0,18.57,7.07Z"/><path class="cls-3" d="M5.82,13.4a1.14,1.14,0,0,1,1-.72h1.5a20,20,0,0,0,3.42-.21,5.53,5.53,0,0,0,1.88-.7A5.89,5.89,0,0,0,15.8,9.38,7.43,7.43,0,0,0,16.59,6c0-.28,0-.54,0-.79a5.85,5.85,0,0,0-1.64-.5A19.49,19.49,0,0,0,12,4.56H7.87a.71.71,0,0,0-.7.59Z"/></g></g></svg>