<svg xmlns="http://www.w3.org/2000/svg" viewBox="0 0 9.11 11.6"><defs><style>.cls-1{fill:#ec1c24;}</style></defs><g id="Capa_2" data-name="Capa 2"><g id="Layer_1" data-name="Layer 1"><path class="cls-1" d="M8.7,8.75l-.1-.1S7.46,7.56,7.22,7.37A1,1,0,0,0,6,7.36l-.2.16a2.94,2.94,0,0,1-.63.4l-.08-.07A5.54,5.54,0,0,1,3.77,6.32a7,7,0,0,1-.7-1.77h0l.23-.13.25-.15A2.09,2.09,0,0,0,4,3.92a.93.93,0,0,0,.23-.86c0-.12-.07-.84-.12-1.4l-.05-.5a1,1,0,0,0-.7-1L3.07.09a1.66,1.66,0,0,0-1.3.09A3.09,3.09,0,0,0,.15,2.11,5.21,5.21,0,0,0,.37,5.16a10.26,10.26,0,0,0,3,4.86C5,11.38,5.62,11.54,6.19,11.59h.27a2.71,2.71,0,0,0,2.07-.83A2.31,2.31,0,0,0,9.09,9.3h0A1.14,1.14,0,0,0,8.7,8.75Z"/></g></g></svg>