<svg xmlns="http://www.w3.org/2000/svg" viewBox="0 0 9.99 12.54"><defs><style>.cls-1{fill:#35b34a;}</style></defs><g id="Capa_2" data-name="Capa 2"><g id="Layer_1" data-name="Layer 1"><path class="cls-1" d="M5,12.54H5A1.37,1.37,0,0,1,3.91,12C1.46,8.9,0,6.28,0,5A5,5,0,1,1,10,5c0,1.28-1.46,3.9-3.91,7A1.39,1.39,0,0,1,5,12.54ZM5,1A4,4,0,0,0,1,5c0,.63.78,2.69,3.69,6.39a.42.42,0,0,0,.3.15H5a.4.4,0,0,0,.31-.16C8.21,7.69,9,5.63,9,5A4,4,0,0,0,5,1Z"/><circle class="cls-1" cx="4.99" cy="5" r="1.5"/></g></g></svg>