<svg xmlns="http://www.w3.org/2000/svg" viewBox="0 0 79.72 11.47"><defs><style>.cls-1{fill:#dea001;}.cls-1,.cls-2{stroke:#dea001;stroke-linecap:round;stroke-linejoin:round;}.cls-2{fill:#fff;}</style></defs><g id="Capa_2" data-name="Capa 2"><g id="Layer_1" data-name="Layer 1"><path class="cls-1" d="M11,4.09,8.14,3.68a.56.56,0,0,1-.41-.3L6.46.8a.54.54,0,0,0-1,0L4.22,3.38a.56.56,0,0,1-.41.3L1,4.09A.54.54,0,0,0,.66,5L2.72,7a.53.53,0,0,1,.16.48l-.49,2.83a.54.54,0,0,0,.79.57L5.72,9.56a.57.57,0,0,1,.51,0L8.77,10.9a.54.54,0,0,0,.79-.57L9.07,7.5A.53.53,0,0,1,9.23,7l2-2A.53.53,0,0,0,11,4.09Z"/><path class="cls-1" d="M27.93,4.09l-2.85-.41a.54.54,0,0,1-.4-.3L23.4.8a.54.54,0,0,0-1,0L21.16,3.38a.56.56,0,0,1-.41.3l-2.84.41a.54.54,0,0,0-.3.92l2.06,2a.55.55,0,0,1,.15.48l-.48,2.83a.54.54,0,0,0,.78.57l2.55-1.34a.55.55,0,0,1,.5,0l2.54,1.34a.54.54,0,0,0,.79-.57L26,7.5A.53.53,0,0,1,26.17,7l2.06-2A.54.54,0,0,0,27.93,4.09Z"/><path class="cls-1" d="M44.87,4.09,42,3.68a.56.56,0,0,1-.41-.3L40.35.8a.54.54,0,0,0-1,0L38.1,3.38a.54.54,0,0,1-.4.3l-2.85.41a.54.54,0,0,0-.3.92l2.06,2a.53.53,0,0,1,.16.48l-.49,2.83a.54.54,0,0,0,.79.57l2.54-1.34a.55.55,0,0,1,.5,0l2.55,1.34a.54.54,0,0,0,.78-.57L43,7.5A.55.55,0,0,1,43.11,7l2.06-2A.54.54,0,0,0,44.87,4.09Z"/><path class="cls-1" d="M61.82,4.09,59,3.68a.57.57,0,0,1-.41-.3L57.29.8a.54.54,0,0,0-1,0L55.05,3.38a.56.56,0,0,1-.41.3l-2.84.41a.54.54,0,0,0-.3.92l2,2a.53.53,0,0,1,.16.48l-.49,2.83a.54.54,0,0,0,.79.57l2.54-1.34a.57.57,0,0,1,.51,0L59.6,10.9a.54.54,0,0,0,.79-.57L59.9,7.5A.53.53,0,0,1,60.06,7l2.06-2A.54.54,0,0,0,61.82,4.09Z"/><path class="cls-1" d="M73.27.8,72,3.38a.56.56,0,0,1-.4.3l-2.85.41a.54.54,0,0,0-.3.92L70.5,7a.53.53,0,0,1,.15.48l-.48,2.83a.54.54,0,0,0,.78.57L73.5,9.56a.45.45,0,0,1,.3,0v-9A.51.51,0,0,0,73.27.8Z"/><path class="cls-2" d="M76.55,10.9a.54.54,0,0,0,.78-.57L76.85,7.5A.53.53,0,0,1,77,7l2.06-2a.54.54,0,0,0-.3-.92l-2.84-.41a.56.56,0,0,1-.41-.3L74.24.8A.54.54,0,0,0,73.8.51v9a.45.45,0,0,1,.2,0Z"/></g></g></svg>