<svg xmlns="http://www.w3.org/2000/svg" viewBox="0 0 41.4 13.42"><defs><style>.cls-1{fill:#9b9b9b;}.cls-2{fill:#e3e4e4;}</style></defs><g id="Capa_2" data-name="Capa 2"><g id="Layer_1" data-name="Layer 1"><path class="cls-1" d="M5.11,13.21,3.5.2H6A.94.94,0,0,1,7,1.06l.36,4.4c.13,1.41.23,2.9.33,4.46h0c.55-1.47,1.26-3,1.87-4.38L12,.2h3.69L9,13.21Z"/><path class="cls-1" d="M20.33.2l-2.46,13H14.58L17,.2Z"/><path class="cls-1" d="M21,9.77a6.72,6.72,0,0,0,3.21.82c.91,0,1.73-.34,1.73-1.11s-.58-1-1.69-1.59C23,7.22,21.52,6.21,21.52,4.4,21.52,1.64,23.94,0,27,0a7.15,7.15,0,0,1,3.26.62l-1,2.76a5.48,5.48,0,0,0-2.49-.55c-1.16,0-1.72.47-1.72,1s.86,1,1.85,1.6c1.57.81,2.62,1.88,2.62,3.43,0,3.17-2.67,4.54-5.55,4.54a7.31,7.31,0,0,1-4-.94Z"/><path class="cls-1" d="M34.35,10.15l-1.3,3.06H29.53l5.69-12a1.81,1.81,0,0,1,1.63-1H40l1.39,13H37.93l-.15-3.06Zm3.31-2.48-.15-2.39c0-.73-.09-1.81-.16-2.62h0c-.33.81-.7,1.9-1,2.63l-1,2.38Z"/><path class="cls-2" d="M7,1.06A.94.94,0,0,0,6,.2H3.5L0,.35V1a6,6,0,0,1,3.7.86A7,7,0,0,1,5.24,3,8.19,8.19,0,0,1,7.4,6.34c0-.29,0-.59-.07-.88Z"/><path class="cls-2" d="M7.4,6.34v0h0Z"/></g></g></svg>