<svg xmlns="http://www.w3.org/2000/svg" viewBox="0 0 16.79 16.1"><defs><style>.cls-1{fill:#fff;}</style></defs><g id="Capa_2" data-name="Capa 2"><g id="Layer_1" data-name="Layer 1"><path class="cls-1" d="M4,16.1a1.27,1.27,0,0,1-.75-.25,1.25,1.25,0,0,1-.51-1.24l.73-4.25-3.08-3a1.27,1.27,0,0,1,.7-2.17l4.26-.62L7.25.71A1.28,1.28,0,0,1,8.4,0,1.25,1.25,0,0,1,9.54.71l1.9,3.86,4.26.62a1.27,1.27,0,0,1,.71,2.17l-3.08,3,.73,4.24A1.28,1.28,0,0,1,12.2,16L8.4,14,4.59,16A1.26,1.26,0,0,1,4,16.1Zm4.73-2.33ZM8.4,11.85A1.26,1.26,0,0,1,9,12l2.85,1.5-.55-3.17a1.28,1.28,0,0,1,.37-1.13L14,7l-3.18-.46a1.25,1.25,0,0,1-1-.7L8.4,2.91,7,5.79a1.25,1.25,0,0,1-1,.7L2.83,7,5.14,9.2a1.28,1.28,0,0,1,.36,1.13L5,13.5,7.8,12A1.27,1.27,0,0,1,8.4,11.85ZM3.53,10Zm9.73,0ZM5.18,4.91Zm6.43,0ZM7.75,1.6Zm1.3,0h0Z"/></g></g></svg>