<svg xmlns="http://www.w3.org/2000/svg" viewBox="0 0 11.95 11.45"><defs><style>.cls-1{fill:#dea001;}.cls-1,.cls-2{stroke:#dea001;stroke-linecap:round;stroke-linejoin:round;}.cls-2{fill:#fff;}</style></defs><g id="Capa_2" data-name="Capa 2"><g id="Layer_1" data-name="Layer 1"><path class="cls-1" d="M5.49.79,4.22,3.37a.54.54,0,0,1-.41.29L1,4.08A.54.54,0,0,0,.66,5L2.72,7a.53.53,0,0,1,.16.48l-.49,2.83a.54.54,0,0,0,.79.57L5.72,9.55A.55.55,0,0,1,6,9.5V.5A.53.53,0,0,0,5.49.79Z"/><path class="cls-2" d="M8.77,10.89a.54.54,0,0,0,.79-.57L9.07,7.49A.53.53,0,0,1,9.23,7l2-2a.53.53,0,0,0-.3-.92L8.14,3.66a.52.52,0,0,1-.41-.29L6.46.79A.54.54,0,0,0,6,.5v9a.73.73,0,0,1,.2.05Z"/></g></g></svg>