<svg xmlns="http://www.w3.org/2000/svg" viewBox="0 0 11.95 11.47"><defs><style>.cls-1{fill:#dea001;stroke:#dea001;stroke-linecap:round;stroke-linejoin:round;}</style></defs><g id="Capa_2" data-name="Capa 2"><g id="Layer_1" data-name="Layer 1"><path class="cls-1" d="M11,4.09,8.14,3.68a.56.56,0,0,1-.41-.3L6.46.8a.54.54,0,0,0-1,0L4.22,3.38a.56.56,0,0,1-.41.3L1,4.09A.54.54,0,0,0,.66,5L2.72,7a.53.53,0,0,1,.16.48l-.49,2.83a.54.54,0,0,0,.79.57L5.72,9.56a.57.57,0,0,1,.51,0L8.77,10.9a.54.54,0,0,0,.79-.57L9.07,7.5A.53.53,0,0,1,9.23,7l2-2A.53.53,0,0,0,11,4.09Z"/></g></g></svg>